<?xml version="1.0" encoding="utf-8"?>
<!-- Generator: Adobe Illustrator 28.0.0, SVG Export Plug-In . SVG Version: 6.00 Build 0)  -->
<svg version="1.1" id="Calque_1" xmlns="http://www.w3.org/2000/svg" xmlns:xlink="http://www.w3.org/1999/xlink" x="0px" y="0px"
	 viewBox="0 0 595.28 841.89" style="enable-background:new 0 0 595.28 841.89;" xml:space="preserve">
<style type="text/css">
	.st0{fill:#E52421;}
</style>
<g>
</g>
<g>
	<g>
		<path class="st0" d="M65.67,468.1l6.36,3.55c-1.43,5.44-4.32,9.65-8.67,12.64s-9.35,4.48-14.99,4.48c-7.41,0-13.35-2.4-17.82-7.21
			s-6.71-10.75-6.71-17.82c0-7.76,2.25-13.93,6.75-18.53s10.37-6.89,17.61-6.89c6.4,0,11.78,1.75,16.14,5.24v-4.46h6.33v15.71h-6.33
			c-1.41-3.19-3.57-5.65-6.5-7.4s-6.01-2.62-9.25-2.62c-4.88,0-8.88,1.76-12.01,5.27s-4.69,7.96-4.69,13.32
			c0,5.51,1.68,10.01,5.03,13.5s7.32,5.24,11.92,5.24c3.77,0,7.21-1.21,10.3-3.64S64.4,472.6,65.67,468.1z"/>
		<path class="st0" d="M112.78,482.06V488H101.1v-4.15c-3.23,3.14-6.84,4.71-10.83,4.71c-3.09,0-5.78-1.01-8.07-3.02
			s-3.43-4.59-3.43-7.73c0-3.16,1.21-5.79,3.64-7.88s5.35-3.13,8.77-3.13c3.19,0,6.27,0.96,9.25,2.88v-3.38
			c0-1.73-0.16-3.07-0.49-4.01s-1.1-1.78-2.3-2.53s-2.78-1.12-4.73-1.12c-3.35,0-5.78,1.34-7.28,4.01l-6.4-1.69
			c2.84-5.3,7.73-7.95,14.7-7.95c2.55,0,4.76,0.35,6.63,1.04s3.25,1.58,4.17,2.67s1.53,2.27,1.85,3.53s0.47,3.28,0.47,6.05v15.75
			H112.78z M100.44,475.35c-2.88-2.25-5.8-3.38-8.75-3.38c-1.85,0-3.4,0.54-4.64,1.62s-1.86,2.47-1.86,4.18
			c0,1.59,0.54,2.93,1.63,4.01s2.57,1.62,4.45,1.62c3.23,0,6.29-1.36,9.18-4.08V475.35z"/>
		<path class="st0" d="M121.67,482.06v-22.15h-5.66v-5.94h12.34v4.29c4.02-3.21,7.97-4.82,11.83-4.82c3.88,0,6.56,1.77,8.04,5.31
			c4.43-3.54,8.55-5.31,12.38-5.31c2.2,0,4.01,0.49,5.43,1.46s2.37,2.2,2.87,3.69s0.74,3.69,0.74,6.59v16.88h5.94V488h-12.62v-21.62
			c0-1.97-0.09-3.36-0.26-4.17s-0.62-1.48-1.34-2s-1.58-0.79-2.58-0.79c-2.86,0-6.11,1.46-9.74,4.39v18.25h5.84V488h-12.52v-22.25
			c0-2.23-0.32-3.84-0.96-4.83s-1.74-1.49-3.28-1.49c-2.53,0-5.77,1.46-9.75,4.39v18.25h5.98V488h-18.74v-5.94H121.67z"/>
		<path class="st0" d="M214.59,472.67h-28.62c0.42,3.14,1.66,5.68,3.73,7.63s4.7,2.92,7.91,2.92c4.66,0,8.36-1.88,11.07-5.62
			l5.91,2.6c-1.92,2.98-4.42,5.19-7.49,6.63s-6.28,2.16-9.63,2.16c-5.2,0-9.65-1.62-13.34-4.87s-5.54-7.62-5.54-13.13
			c0-5.23,1.8-9.53,5.4-12.9s7.73-5.06,12.39-5.06c4.57,0,8.71,1.65,12.43,4.94S214.45,466.16,214.59,472.67z M207.7,467.82
			c-0.47-2.39-1.71-4.55-3.73-6.49s-4.49-2.9-7.42-2.9c-2.67,0-4.96,0.87-6.86,2.62s-3.06,4-3.48,6.77H207.7z"/>
		<path class="st0" d="M225.7,482.06v-22.15h-6.86v-5.94h12.2v7.66c0.75-1.99,1.79-3.64,3.13-4.96s2.75-2.18,4.24-2.6
			s3.52-0.63,6.1-0.63h1.76v6.75h-1.34c-3.4,0-5.94,0.34-7.61,1.02s-2.92,1.92-3.73,3.71s-1.21,5.01-1.21,9.65v7.49h7.42V488h-20.95
			v-5.94H225.7z"/>
		<path d="M249.78,488v-17.75h6.12v4.32c2.93,5.32,6.76,7.98,11.5,7.98c2.41,0,4.45-0.74,6.12-2.21s2.5-3.41,2.5-5.8
			c0-2.32-0.68-3.99-2.04-5.01s-3.93-2.03-7.7-3.04c-4.38-1.17-7.63-2.28-9.74-3.32s-3.79-2.53-5.04-4.46s-1.88-4.22-1.88-6.87
			c0-4.1,1.37-7.38,4.1-9.83s6.16-3.67,10.28-3.67c3.91,0,7.55,1.27,10.9,3.8v-3.27h5.98v14.84h-5.98v-3.41
			c-2.51-3.77-5.96-5.66-10.37-5.66c-2.67,0-4.72,0.62-6.15,1.85s-2.14,2.7-2.14,4.41c0,1.31,0.36,2.47,1.09,3.46
			s1.65,1.73,2.78,2.2s3.34,1.12,6.65,1.96c4.31,1.12,7.44,2.17,9.39,3.14c1.94,0.97,3.62,2.6,5.03,4.87
			c1.41,2.27,2.11,4.89,2.11,7.84c0,4.17-1.47,7.62-4.41,10.34s-6.58,4.08-10.92,4.08c-4.45,0-8.46-1.61-12.02-4.82V488H249.78z"/>
		<path d="M292.21,497.32v-37.41h-5.73v-5.94h12.41v5.34c3.33-3.91,7.36-5.87,12.09-5.87c4.78,0,8.74,1.64,11.87,4.92
			s4.69,7.55,4.69,12.8c0,5.51-1.7,9.86-5.1,13.04s-7.27,4.78-11.6,4.78c-4.5,0-8.48-1.73-11.95-5.2v13.54h6.61v5.94h-19.51v-5.94
			H292.21z M298.79,471.48c0,1.88,0.39,3.67,1.16,5.38s2,3.15,3.69,4.31s3.67,1.74,5.94,1.74c3.19,0,5.82-1.07,7.89-3.2
			s3.11-5.06,3.11-8.79c0-3.63-1.08-6.47-3.25-8.51s-4.63-3.06-7.4-3.06c-2.95,0-5.55,1.11-7.79,3.32S298.79,467.82,298.79,471.48z"
			/>
		<path d="M333.24,470.99c0-5.25,1.73-9.56,5.2-12.92s7.7-5.04,12.69-5.04c4.9,0,9.11,1.66,12.62,4.97s5.27,7.65,5.27,12.99
			s-1.75,9.68-5.26,13.01s-7.72,4.99-12.64,4.99c-5.06,0-9.31-1.69-12.74-5.06S333.24,476.24,333.24,470.99z M340.31,470.97
			c0,3.36,1.05,6.11,3.15,8.26c2.1,2.15,4.66,3.22,7.68,3.22c3.07,0,5.64-1.08,7.72-3.26c2.07-2.17,3.11-4.91,3.11-8.22
			c0-3.34-1.05-6.08-3.16-8.24c-2.11-2.16-4.66-3.24-7.66-3.24c-3.14,0-5.73,1.1-7.77,3.31C341.33,465,340.31,467.73,340.31,470.97z
			"/>
		<path d="M380.21,482.06v-22.15h-6.86v-5.94h12.2v7.66c0.75-1.99,1.79-3.64,3.13-4.96s2.75-2.18,4.24-2.6s3.52-0.63,6.1-0.63h1.76
			v6.75h-1.34c-3.4,0-5.94,0.34-7.61,1.02s-2.92,1.92-3.73,3.71s-1.21,5.01-1.21,9.65v7.49h7.42V488h-20.95v-5.94H380.21z"/>
		<path d="M405.07,459.91v-5.94h4.43v-5.24l6.68-6.12v11.36h6.29v5.94h-6.29v16.52c0,2.65,0.15,4.28,0.44,4.9s1.03,0.93,2.2,0.93
			c1.24,0,2.46-0.23,3.66-0.7v6.08c-1.71,0.61-3.42,0.91-5.13,0.91c-2.04,0-3.69-0.45-4.96-1.35c-1.27-0.9-2.06-2.03-2.39-3.39
			s-0.49-3.7-0.49-7.03v-16.88H405.07z"/>
		<path d="M432.1,481.89v-36.67h-6.19v-6.12h37.93v14.73h-6.05v-8.61h-18.32v14.48h15.79v6.12h-15.79v16.07h6.26V488h-19.83v-6.12
			H432.1z"/>
		<path d="M471.97,482.06v-22.15h-5.27v-5.94h11.95v28.09h5.27V488h-17.23v-5.94H471.97z M471.02,442.41c0-1.08,0.38-2.02,1.14-2.81
			s1.73-1.2,2.9-1.2c1.1,0,2.05,0.39,2.85,1.16s1.2,1.72,1.2,2.85s-0.4,2.08-1.2,2.87s-1.75,1.18-2.85,1.18
			c-1.12,0-2.08-0.4-2.87-1.2S471.02,443.51,471.02,442.41z"/>
		<path d="M499.95,453.97v4.11c4.29-3.09,8.2-4.64,11.74-4.64c2.2,0,4.03,0.52,5.47,1.56s2.38,2.32,2.83,3.83s0.67,3.72,0.67,6.63
			v16.59h5.73V488h-12.41v-22.25c0-2.58-0.39-4.26-1.16-5.04s-1.72-1.18-2.85-1.18c-2.95,0-6.29,1.44-10.02,4.32v18.21h5.87V488
			H487.3v-5.94h5.98v-22.15h-5.98v-5.94H499.95z"/>
		<path d="M571.46,482.06V488h-12.8v-4.99c-3.33,3.7-7.38,5.55-12.16,5.55c-4.43,0-8.32-1.51-11.67-4.54s-5.03-7.32-5.03-12.9
			c0-5.6,1.72-10.02,5.17-13.25s7.34-4.85,11.67-4.85c4.59,0,8.6,1.83,12.02,5.48v-13.46h-6.54v-5.94h13.22v42.96H571.46z
			 M536.94,470.95c0,3.75,1.06,6.63,3.18,8.65s4.66,3.02,7.61,3.02c2.86,0,5.4-1.06,7.61-3.18s3.32-5.06,3.32-8.81
			c0-3.77-1.13-6.62-3.39-8.54s-4.8-2.88-7.61-2.88c-3.02,0-5.57,1.13-7.63,3.39S536.94,467.65,536.94,470.95z"/>
	</g>
	<circle class="st0" cx="546.7" cy="471.32" r="5.74"/>
</g>
<g>
</g>
<g>
</g>
<g>
</g>
<g>
</g>
<g>
</g>
<g>
</g>
</svg>
